<svg width="137" height="159" viewBox="0 0 137 159" fill="none" xmlns="http://www.w3.org/2000/svg">
<title>Connections Bot Mascot</title>
<path d="M44.3263 111.657L45.6973 130.222C45.7952 130.906 45.5015 131.688 45.0118 132.176L38.1569 139.7C36.59 141.361 37.8631 144.097 40.1154 144.097H62.345C63.8139 144.097 64.9891 142.925 64.9891 141.459V112.146C64.9891 110.778 63.9119 109.605 62.4429 109.507L46.9704 108.921C45.4035 108.823 44.1305 110.094 44.3263 111.657Z" fill="#DEDEDE"/>
<path d="M62.345 146.051H40.1154C38.2827 146.051 36.623 144.954 35.8873 143.254C35.1578 141.569 35.476 139.702 36.7174 138.375L43.5624 130.862C43.5834 130.839 43.6049 130.816 43.6271 130.794C43.6976 130.724 43.7602 130.563 43.7573 130.49C43.7511 130.446 43.7472 130.41 43.744 130.366L42.3759 111.843C42.2316 110.56 42.6502 109.293 43.5288 108.36C44.4342 107.399 45.7205 106.896 47.0652 106.969L62.5174 107.555C62.536 107.555 62.5546 107.556 62.5732 107.557C65.0262 107.721 66.9475 109.736 66.9475 112.146V141.459C66.9475 143.991 64.8827 146.051 62.345 146.051ZM46.4343 133.52L39.6062 141.015C39.5985 141.023 39.5908 141.031 39.5832 141.04C39.4066 141.227 39.3732 141.45 39.4831 141.704C39.5276 141.807 39.7051 142.143 40.1154 142.143H62.345C62.7294 142.143 63.0305 141.843 63.0305 141.459V112.146C63.0305 111.786 62.732 111.494 62.3329 111.459L46.8961 110.874C46.8801 110.873 46.8642 110.872 46.8482 110.872C46.592 110.856 46.4476 110.968 46.383 111.037C46.2876 111.139 46.2504 111.262 46.2696 111.415C46.2737 111.448 46.277 111.48 46.2794 111.513L47.6465 130.024C47.7983 131.267 47.3383 132.595 46.4343 133.52Z" fill="black"/>
<path d="M66.8619 149.848H30.8553V155.992H66.8619V149.848Z" fill="white"/>
<path d="M66.8619 157.947H30.8553C29.7736 157.947 28.8968 157.072 28.8968 155.992V149.847C28.8968 148.768 29.7736 147.893 30.8553 147.893H66.8619C67.9436 147.893 68.8204 148.768 68.8204 149.847V155.992C68.8204 157.072 67.9436 157.947 66.8619 157.947ZM32.8138 154.038H64.9034V151.802H32.8138V154.038Z" fill="black"/>
<path d="M30.8553 147.155C30.8553 145.639 31.5292 144.185 32.73 143.109L40.7299 135.945C41.3704 135.375 41.7546 134.463 41.6266 133.665L41.1298 127.668L66.8619 127.682V149.847H30.8553V147.155Z" fill="#BA81C5"/>
<path d="M66.8619 151.802H30.8552C29.7735 151.802 28.8967 150.927 28.8967 149.847V147.155C28.8967 145.097 29.8169 143.092 31.4218 141.655L39.4217 134.49C39.6147 134.318 39.7006 134.059 39.6921 133.972C39.6841 133.923 39.6785 133.876 39.6744 133.826L39.1778 127.829C39.1329 127.285 39.3183 126.746 39.6894 126.344C40.0602 125.943 40.5825 125.714 41.1298 125.714C41.1301 125.714 41.1304 125.714 41.131 125.714L66.863 125.728C67.9441 125.729 68.8204 126.603 68.8204 127.682V149.847C68.8204 150.927 67.9436 151.802 66.8619 151.802ZM32.8137 147.893H64.9034V129.635L43.2569 129.624L43.5734 133.444C43.7652 134.85 43.1668 136.395 42.0329 137.403L34.038 144.564C33.2486 145.271 32.8137 146.191 32.8137 147.155L32.8137 147.893Z" fill="black"/>
<path d="M57.4571 138.166H48.1629C47.0812 138.166 46.2044 137.291 46.2044 136.212C46.2044 135.133 47.0812 134.258 48.1629 134.258H57.4571C58.5387 134.258 59.4156 135.133 59.4156 136.212C59.4156 137.291 58.5387 138.166 57.4571 138.166Z" fill="black"/>
<path d="M57.457 143.956H43.9569C42.8752 143.956 41.9984 143.081 41.9984 142.002C41.9984 140.923 42.8752 140.048 43.9569 140.048H57.457C58.5387 140.048 59.4155 140.923 59.4155 142.002C59.4155 143.081 58.5387 143.956 57.457 143.956Z" fill="black"/>
<path d="M97.3424 109.223L98.0782 127.824C98.0582 128.514 98.4384 129.258 98.9801 129.688L106.642 136.393C108.386 137.867 107.43 140.729 105.192 140.982L83.0073 143.494C81.5478 143.66 80.2476 142.627 80.082 141.17L76.7694 112.044C76.6148 110.685 77.5526 109.398 79.0011 109.136L94.3088 106.813C95.8546 106.539 97.2631 107.658 97.3424 109.223Z" fill="#DEDEDE"/>
<path d="M82.7059 145.466C80.3981 145.466 78.4021 143.732 78.1359 141.391L74.8232 112.264C74.5513 109.87 76.2329 107.651 78.6513 107.213C78.6699 107.21 78.6882 107.207 78.7065 107.204L93.9939 104.884C95.2752 104.665 96.5869 104.998 97.5959 105.8C98.6118 106.607 99.2324 107.819 99.2985 109.124C99.2988 109.131 99.2991 109.138 99.2994 109.146L100.035 127.747C100.037 127.791 100.037 127.836 100.036 127.88C100.041 127.945 100.122 128.097 100.2 128.16C100.225 128.179 100.248 128.199 100.272 128.219L107.922 134.914C109.305 136.093 109.833 137.913 109.299 139.669C108.759 141.44 107.234 142.718 105.413 142.924L83.2281 145.436C83.0528 145.456 82.8783 145.466 82.7059 145.466ZM79.3312 111.063C78.9386 111.143 78.6749 111.467 78.7154 111.824L82.028 140.95C82.0714 141.331 82.4053 141.596 82.7865 141.553L104.972 139.041C105.379 138.994 105.518 138.641 105.55 138.534C105.631 138.269 105.572 138.05 105.376 137.885C105.367 137.877 105.358 137.87 105.35 137.862L97.7185 131.183C96.7156 130.366 96.1089 129.098 96.1192 127.846L95.3859 109.314C95.3717 109.077 95.2531 108.935 95.1556 108.857C95.0573 108.779 94.8891 108.695 94.6505 108.737C94.6346 108.74 94.6189 108.742 94.6033 108.745L79.3312 111.063Z" fill="black"/>
<path d="M114.966 145.835L79.1887 149.886L79.8831 155.992L115.66 151.94L114.966 145.835Z" fill="white"/>
<path d="M79.8829 157.946C79.4419 157.946 79.0114 157.798 78.6631 157.521C78.2565 157.198 77.9956 156.728 77.9368 156.213L77.2425 150.107C77.1205 149.035 77.8928 148.067 78.9677 147.945L114.745 143.894C115.261 143.836 115.779 143.984 116.185 144.307C116.592 144.63 116.853 145.1 116.912 145.615L117.606 151.721C117.728 152.793 116.956 153.761 115.881 153.883L80.1037 157.934C80.0299 157.942 79.9564 157.946 79.8829 157.946ZM81.3555 151.608L81.6082 153.83L113.493 150.22L113.24 147.998L81.3555 151.608Z" fill="black"/>
<path d="M114.661 143.16C114.49 141.654 113.656 140.285 112.341 139.351L103.583 133.132C102.882 132.638 102.397 131.776 102.434 130.969L102.25 124.954L76.6837 127.863L79.1885 149.887L114.965 145.836L114.661 143.16Z" fill="#BA81C5"/>
<path d="M79.1862 151.841C78.2034 151.841 77.3558 151.104 77.2425 150.107L74.7375 128.083C74.6156 127.011 75.3873 126.043 76.4616 125.921L102.028 123.012C102.572 122.95 103.117 123.118 103.532 123.476C103.946 123.834 104.191 124.348 104.208 124.894L104.392 130.909C104.393 130.959 104.393 131.008 104.391 131.058C104.392 131.143 104.507 131.391 104.713 131.536L113.477 137.759C115.234 139.007 116.375 140.895 116.607 142.94L116.912 145.615C116.97 146.13 116.821 146.647 116.498 147.053C116.174 147.458 115.702 147.719 115.186 147.777L79.4094 151.828C79.3344 151.837 79.2597 151.841 79.1862 151.841ZM78.8505 129.583L80.9138 147.724L112.799 144.114L112.715 143.381C112.715 143.381 112.715 143.38 112.715 143.381C112.606 142.423 112.07 141.557 111.206 140.943L102.447 134.724C101.212 133.854 100.443 132.386 100.475 130.967L100.357 127.136L78.8505 129.583Z" fill="black"/>
<path d="M86.9901 137.234C86.0073 137.234 85.1597 136.498 85.0464 135.5C84.9244 134.428 85.6967 133.46 86.7716 133.338L96.0064 132.292C97.0819 132.172 98.0514 132.942 98.1734 134.014C98.2953 135.086 97.523 136.054 96.4481 136.176L87.2133 137.222C87.1383 137.23 87.0636 137.234 86.9901 137.234Z" fill="black"/>
<path d="M87.6443 142.987C86.6615 142.987 85.8139 142.251 85.7005 141.253C85.5786 140.181 86.3509 139.213 87.4258 139.091L100.84 137.572C101.918 137.452 102.885 138.222 103.007 139.294C103.129 140.366 102.357 141.334 101.282 141.456L87.8675 142.975C87.7925 142.983 87.7178 142.987 87.6443 142.987Z" fill="black"/>
<path d="M125.213 62.8798L121.339 63.0462C116.748 63.2435 112.867 59.6904 112.669 55.1102L111.908 37.4648C111.71 32.8847 115.271 29.0119 119.862 28.8147L123.736 28.6482C128.326 28.451 132.207 32.0041 132.405 36.5842L133.166 54.2296C133.364 58.8098 129.803 62.6826 125.213 62.8798Z" fill="#DEDEDE"/>
<path d="M120.97 65.1292C118.362 65.1293 115.885 64.1692 113.951 62.3988C111.904 60.5252 110.711 57.9683 110.592 55.1994L109.83 37.554C109.584 31.838 114.044 26.9874 119.772 26.7413L123.646 26.5748C126.42 26.4563 129.077 27.4217 131.124 29.2955C133.17 31.1692 134.363 33.7259 134.483 36.4949L135.244 54.1402C135.491 59.8562 131.031 64.7069 125.302 64.953L121.428 65.1195C121.275 65.1259 121.122 65.1292 120.97 65.1292ZM124.1 30.7156C124.008 30.7156 123.917 30.7175 123.825 30.7215L119.951 30.8879C116.514 31.0355 113.838 33.9459 113.986 37.3755L114.747 55.0209C114.819 56.6824 115.535 58.2164 116.763 59.3406C117.991 60.4647 119.581 61.0459 121.249 60.9728L125.124 60.8064C128.56 60.6588 131.237 57.7484 131.089 54.3188L130.327 36.6734C130.255 35.012 129.54 33.4779 128.312 32.3538C127.151 31.2918 125.665 30.7156 124.1 30.7156Z" fill="black"/>
<path d="M17.0593 67.5264L13.1852 67.6928C8.5949 67.8901 4.71352 64.337 4.51588 59.7568L3.75443 42.1114C3.55678 37.5313 7.11771 33.6585 11.708 33.4613L15.5821 33.2948C20.1724 33.0976 24.0537 36.6507 24.2514 41.2308L25.0128 58.8762C25.2105 63.4564 21.6495 67.3292 17.0593 67.5264Z" fill="#DEDEDE"/>
<path d="M12.8163 69.776C10.2081 69.776 7.73115 68.8159 5.79716 67.0455C3.75039 65.1717 2.5574 62.615 2.43813 59.846L1.67676 42.2006C1.55719 39.4317 2.52552 36.7819 4.40312 34.7397C6.28102 32.6974 8.84354 31.5071 11.6186 31.3878L15.4925 31.2213C21.2168 30.9729 26.0824 35.4251 26.3292 41.1413L27.0906 58.7869C27.3371 64.5031 22.8772 69.3536 17.1487 69.5997L13.2745 69.7661C13.1216 69.7726 12.9684 69.7759 12.8163 69.776ZM15.943 35.3621C15.853 35.3621 15.7623 35.364 15.6714 35.368L11.7975 35.5344C10.1325 35.6059 8.59497 36.3202 7.46841 37.5455C6.34155 38.7709 5.76055 40.3607 5.83229 42.0219L6.59366 59.6675C6.6654 61.3289 7.38131 62.8629 8.60914 63.9871C9.83726 65.1112 11.4297 65.6906 13.0956 65.6195L16.9698 65.453C20.4068 65.3055 23.0829 62.3951 22.935 58.9654L22.1737 41.3199C22.0293 37.9813 19.261 35.3621 15.943 35.3621Z" fill="black"/>
<path d="M102.766 119.199L40.3462 121.881C27.7022 122.424 17.0109 112.637 16.4665 100.021L13.425 29.5383C12.8806 16.9223 22.6892 6.25458 35.3331 5.71136L97.7531 3.02962C110.397 2.4864 121.088 12.2734 121.633 24.8894L124.674 95.372C125.219 107.988 115.41 118.656 102.766 119.199Z" fill="#DEDEDE"/>
<path d="M39.3473 123.856C26.1196 123.856 15.0843 113.416 14.5098 100.105L11.4684 29.6225C10.8785 15.9499 21.5464 4.34764 35.249 3.75894L97.6691 1.07717C104.31 0.791879 110.659 3.10308 115.554 7.58481C120.45 12.0664 123.304 18.1823 123.59 24.8054L126.631 95.2879C127.221 108.96 116.552 120.561 102.85 121.151L40.4305 123.833C40.0685 123.849 39.7066 123.856 39.3473 123.856ZM98.7605 4.96211C98.4538 4.96211 98.1462 4.96874 97.8374 4.98199L35.4173 7.66376C23.8727 8.15967 14.8847 17.935 15.3818 29.4543L18.4232 99.9368C18.9071 111.151 28.2057 119.947 39.3494 119.948C39.6529 119.948 39.9563 119.942 40.2622 119.928L102.682 117.247C114.227 116.751 123.215 106.975 122.718 95.4561L119.676 24.9736C119.435 19.3934 117.031 14.2408 112.906 10.4648C109.009 6.89728 104.017 4.96211 98.7605 4.96211Z" fill="black"/>
<path d="M108.021 33.205L27.7028 36.6557L27.3005 27.3344C27.1609 24.0995 29.676 21.3642 32.918 21.2249L101.496 18.2786C104.738 18.1393 107.479 20.6488 107.619 23.8837L108.021 33.205Z" fill="#F9DF6D"/>
<path d="M27.7014 38.61C26.6584 38.61 25.7913 37.7894 25.7461 36.7397L25.3437 27.4184C25.2537 25.3324 25.9832 23.3362 27.3979 21.7975C28.8126 20.259 30.743 19.3622 32.8338 19.2723L101.412 16.326C105.721 16.1394 109.39 19.4932 109.576 23.7994L109.978 33.1208C110.024 34.1991 109.186 35.1109 108.105 35.1573L27.787 38.608C27.7584 38.6092 27.7297 38.61 27.7014 38.61ZM101.751 20.2272C101.694 20.2272 101.637 20.2283 101.58 20.2309L33.0021 23.1771C31.957 23.2221 30.9916 23.6705 30.2843 24.4398C29.5769 25.2091 29.2123 26.2071 29.2572 27.2502L29.5754 34.6191L105.98 31.3366L105.662 23.9676C105.572 21.8716 103.833 20.2272 101.751 20.2272Z" fill="black"/>
<path d="M108.021 33.2046L27.7026 36.6555L28.3577 51.8341L108.676 48.3832L108.021 33.2046Z" fill="#A0C35A"/>
<path d="M28.3576 53.7885C27.8685 53.7885 27.3955 53.6057 27.0336 53.2743C26.651 52.9239 26.4234 52.4361 26.4009 51.9184L25.7461 36.7398C25.6995 35.6615 26.5379 34.7497 27.6187 34.7033L107.937 31.2525C109.016 31.2082 109.931 32.0426 109.978 33.1209L110.633 48.2995C110.655 48.8173 110.47 49.3228 110.119 49.7047C109.768 50.0866 109.279 50.3137 108.76 50.336L28.4418 53.7867C28.4137 53.7879 28.3857 53.7885 28.3576 53.7885ZM29.7437 38.524L30.2302 49.7978L106.635 46.5153L106.148 35.2415L29.7437 38.524Z" fill="black"/>
<path d="M108.676 48.3831L28.3577 51.834L29.0127 67.0125L109.331 63.5617L108.676 48.3831Z" fill="#B0C4EF"/>
<path d="M29.0113 68.9672C27.9683 68.9672 27.1012 68.1467 27.056 67.0969L26.4009 51.9183C26.3785 51.4005 26.5633 50.895 26.9143 50.5131C27.2656 50.1312 27.7545 49.9041 28.2735 49.8818L108.592 46.4311C109.109 46.4083 109.617 46.5931 110 46.9435C110.383 47.2939 110.61 47.7817 110.633 48.2994L111.288 63.478C111.334 64.5563 110.496 65.4681 109.415 65.5145L29.0969 68.9653C29.0683 68.9664 29.0396 68.9672 29.0113 68.9672ZM30.3988 53.7026L30.8853 64.9763L107.29 61.6938L106.804 50.42L30.3988 53.7026Z" fill="black"/>
<path d="M104.116 78.993L35.5379 81.9392C32.2959 82.0785 29.5545 79.5691 29.4149 76.3342L29.0127 67.0128L109.331 63.5621L109.733 72.8835C109.873 76.1184 107.358 78.8537 104.116 78.993Z" fill="#BA81C5"/>
<path d="M35.2815 83.8991C31.1151 83.8991 27.6391 80.6107 27.4581 76.4184L27.0561 67.097C27.0094 66.0187 27.8478 65.1069 28.9286 65.0605L109.247 61.6098C110.332 61.5632 111.241 62.3998 111.288 63.4781L111.69 72.7994C111.78 74.8854 111.051 76.8816 109.636 78.4203C108.221 79.9587 106.291 80.8555 104.2 80.9453L35.6222 83.8918C35.5082 83.8966 35.3946 83.8991 35.2815 83.8991ZM31.0536 68.8812L31.3716 76.2502C31.4646 78.4032 33.2905 80.0831 35.4539 79.987L104.032 77.0405C105.077 76.9956 106.042 76.5473 106.75 75.778C107.457 75.0087 107.821 74.0107 107.777 72.9676L107.458 65.5987L31.0536 68.8812Z" fill="black"/>
<path d="M81.6479 103.321C85.4253 103.321 88.4875 100.266 88.4875 96.4966C88.4875 92.7275 85.4253 89.672 81.6479 89.672C77.8704 89.672 74.8082 92.7275 74.8082 96.4966C74.8082 100.266 77.8704 103.321 81.6479 103.321Z" fill="#787C7E"/>
<path d="M81.6386 105.276C79.4321 105.276 77.3361 104.463 75.6999 102.965C73.9682 101.38 72.9588 99.2169 72.8578 96.8741C72.6494 92.0382 76.4232 87.9346 81.2696 87.7259C86.105 87.516 90.2289 91.2827 90.438 96.1189C90.6464 100.955 86.8732 105.059 82.0262 105.267C81.8969 105.273 81.7676 105.276 81.6386 105.276ZM81.4379 91.6307C78.749 91.7463 76.6556 94.0231 76.7713 96.7062C76.8274 98.0058 77.3874 99.2059 78.3481 100.085C79.309 100.965 80.5522 101.42 81.858 101.362C84.5468 101.247 86.6402 98.9701 86.5245 96.287C86.4088 93.6042 84.1338 91.5161 81.4379 91.6307Z" fill="black"/>
<path d="M103.865 102.367C107.643 102.367 110.705 99.3112 110.705 95.5421C110.705 91.773 107.643 88.7175 103.865 88.7175C100.088 88.7175 97.0255 91.773 97.0255 95.5421C97.0255 99.3112 100.088 102.367 103.865 102.367Z" fill="#787C7E"/>
<path d="M103.86 104.321C99.1818 104.321 95.2784 100.628 95.075 95.9199C94.8666 91.0836 98.6398 86.9797 103.487 86.7714C105.835 86.6705 108.081 87.4881 109.813 89.0733C111.545 90.6585 112.554 92.8219 112.655 95.1646C112.864 100.001 109.09 104.104 104.243 104.313C104.116 104.318 103.987 104.321 103.86 104.321ZM103.655 90.6762C100.966 90.7918 98.8727 93.0687 98.9885 95.7518C99.1042 98.4346 101.38 100.526 104.075 100.408C106.764 100.292 108.857 98.0156 108.742 95.3325C108.686 94.0328 108.126 92.8328 107.165 91.9533C106.204 91.0737 104.961 90.6182 103.655 90.6762Z" fill="black"/>
<path d="M59.4306 104.276C63.2081 104.276 66.2703 101.22 66.2703 97.4511C66.2703 93.682 63.2081 90.6266 59.4306 90.6266C55.6532 90.6266 52.591 93.682 52.591 97.4511C52.591 101.22 55.6532 104.276 59.4306 104.276Z" fill="#787C7E"/>
<path d="M59.4215 106.23C57.215 106.23 55.1189 105.418 53.4828 103.92C51.751 102.335 50.7417 100.172 50.6407 97.8287C50.5394 95.4861 51.3587 93.2443 52.9476 91.5163C54.5361 89.7887 56.7045 88.7816 59.0524 88.6805C63.8873 88.4751 68.0118 92.2374 68.2208 97.0736C68.4293 101.91 64.656 106.014 59.8091 106.222C59.6798 106.227 59.5505 106.23 59.4215 106.23ZM59.2207 92.5853C57.9182 92.6413 56.7152 93.2001 55.8339 94.1586C54.9524 95.1173 54.4981 96.3608 54.5542 97.6606C54.6102 98.9604 55.1703 100.161 56.1309 101.04C57.0913 101.919 58.3306 102.372 59.6408 102.317C62.3297 102.201 64.4231 99.9247 64.3074 97.2416C64.1914 94.5588 61.9235 92.4678 59.2207 92.5853Z" fill="black"/>
<path d="M37.2134 105.23C40.9909 105.23 44.0531 102.175 44.0531 98.4057C44.0531 94.6366 40.9909 91.5812 37.2134 91.5812C33.436 91.5812 30.3738 94.6366 30.3738 98.4057C30.3738 102.175 33.436 105.23 37.2134 105.23Z" fill="#787C7E"/>
<path d="M37.2043 107.185C34.9978 107.185 32.9018 106.372 31.2656 104.875C29.5339 103.289 28.5245 101.126 28.4235 98.7833C28.3223 96.4407 29.1415 94.1989 30.7304 92.4709C32.319 90.7431 34.4871 89.736 36.835 89.6351C39.1764 89.5338 41.4295 90.3517 43.1613 91.9369C44.893 93.5221 45.9024 95.6853 46.0034 98.0282C46.1046 100.371 45.2854 102.613 43.6965 104.34C42.1079 106.068 39.9398 107.076 37.5919 107.176C37.4623 107.182 37.3333 107.185 37.2043 107.185ZM37.0033 93.5399C35.7007 93.5959 34.498 94.1547 33.6168 95.1132C32.7352 96.0718 32.2809 97.3154 32.337 98.6152C32.3931 99.915 32.9531 101.115 33.9138 101.995C34.8741 102.874 36.1158 103.328 37.4236 103.271C38.7262 103.216 39.9289 102.657 40.8101 101.698C41.6917 100.74 42.146 99.496 42.0899 98.1962C42.0338 96.8964 41.4738 95.6963 40.5131 94.8169C39.5528 93.9375 38.3111 93.4818 37.0033 93.5399Z" fill="black"/>
</svg>