<svg width="20" height="20" viewBox="0 0 20 20" fill="none" xmlns="http://www.w3.org/2000/svg">
<g clip-path="url(#clip0_650_1798)">
<rect width="20" height="20" fill="white"/>
<rect width="20" height="20" rx="2" fill="#121212"/>
<path d="M15.8971 11.654C15.6886 12.2383 15.3578 12.7725 14.9262 13.2215C14.4947 13.6706 13.9721 14.0244 13.3929 14.2597V11.654L14.8239 10.3688L13.3929 9.10132V7.30986C13.9839 7.29794 14.5471 7.05883 14.9631 6.64317C15.3791 6.22751 15.6153 5.66794 15.6217 5.08294C15.6217 3.5464 14.1406 3.00117 13.2999 3.00117C13.0723 2.99424 12.8448 3.01807 12.6237 3.07198V3.14633C12.7346 3.14633 12.8992 3.12863 12.9528 3.12863C13.536 3.12863 13.976 3.40124 13.976 3.92522C13.9725 4.0383 13.9458 4.14949 13.8974 4.252C13.849 4.3545 13.7801 4.44617 13.6947 4.52139C13.6093 4.59661 13.5093 4.65381 13.4008 4.68949C13.2923 4.72517 13.1776 4.73858 13.0637 4.7289C11.6327 4.7289 9.91909 3.57118 8.07309 3.57118C6.42743 3.5641 5.30409 4.77846 5.30409 6.00699C5.30409 7.23552 6.01959 7.61788 6.7673 7.88695L6.78518 7.81615C6.65088 7.73216 6.54205 7.61376 6.47025 7.47351C6.39844 7.33326 6.36634 7.1764 6.37735 7.01955C6.38598 6.87966 6.42251 6.74283 6.48483 6.61698C6.54714 6.49112 6.63402 6.37871 6.74043 6.28623C6.84685 6.19375 6.97071 6.12303 7.10488 6.07814C7.23905 6.03325 7.38086 6.01509 7.52215 6.02469C9.0748 6.02469 11.5791 7.30986 13.1353 7.30986H13.282V9.11902L11.851 10.3688L13.282 11.654V14.288C12.6838 14.4985 12.0528 14.6028 11.4181 14.5961C9.00325 14.5961 7.4828 13.148 7.4828 10.7441C7.47792 10.1751 7.55747 9.60848 7.71892 9.06237L8.92454 8.53839V13.849L11.3751 12.7869V7.34527L7.76185 8.93846C7.93041 8.45137 8.19489 8.00218 8.54 7.6169C8.88511 7.23161 9.30399 6.91788 9.77241 6.69383L9.75453 6.64073C7.3397 7.16471 5 8.9774 5 11.6894C5 14.8191 7.66883 17 10.7777 17C14.069 17 15.9329 14.8297 15.9508 11.6646L15.8971 11.654Z" fill="white"/>
</g>
<defs>
<clipPath id="clip0_650_1798">
<rect width="20" height="20" fill="white"/>
</clipPath>
</defs>
</svg>